<svg width="16" height="16" viewBox="0 0 16 16" fill="none" xmlns="http://www.w3.org/2000/svg">
<path d="M8.06009 3.33496C7.69282 3.33496 7.39509 3.63269 7.39509 3.99996C7.39509 4.36723 7.69282 4.66496 8.06009 4.66496H13.7268C14.094 4.66496 14.3918 4.36723 14.3918 3.99996C14.3918 3.63269 14.094 3.33496 13.7268 3.33496H8.06009Z" fill="black"/>
<path d="M14.3924 7.99996C14.3924 7.63269 14.0947 7.33496 13.7274 7.33496H9.39408C9.02681 7.33496 8.72908 7.63269 8.72908 7.99996C8.72908 8.36723 9.02681 8.66496 9.39408 8.66496H13.7274C14.0947 8.66496 14.3924 8.36723 14.3924 7.99996Z" fill="black"/>
<path d="M7.39509 12C7.39509 11.6327 7.69282 11.335 8.06009 11.335H13.7268C14.094 11.335 14.3918 11.6327 14.3918 12C14.3918 12.3672 14.094 12.665 13.7268 12.665H8.06009C7.69282 12.665 7.39509 12.3672 7.39509 12Z" fill="black"/>
<path fill-rule="evenodd" clip-rule="evenodd" d="M3.41625 4.69407C3.45436 4.35101 3.20715 4.042 2.86409 4.00388C2.52102 3.96576 2.21201 4.21297 2.17389 4.55604L2.002 6.10303H0.770092C0.424914 6.10303 0.145092 6.38285 0.145092 6.72803C0.145092 7.07321 0.424914 7.35303 0.770092 7.35303H1.86311L1.71148 8.71777H0.625C0.279822 8.71777 0 8.9976 0 9.34277C0 9.68795 0.279822 9.96777 0.625 9.96777H1.57259L1.42389 11.306C1.38577 11.6491 1.63298 11.9581 1.97605 11.9962C2.31912 12.0344 2.62813 11.7871 2.66625 11.4441L2.83028 9.96777H4.1539L4.0052 11.306C3.96708 11.6491 4.21429 11.9581 4.55736 11.9962C4.90042 12.0344 5.20944 11.7871 5.24755 11.4441L5.41159 9.96777H6.625C6.97018 9.96777 7.25 9.68795 7.25 9.34277C7.25 8.9976 6.97018 8.71777 6.625 8.71777H5.55048L5.70212 7.35303H6.77009C7.11527 7.35303 7.39509 7.07321 7.39509 6.72803C7.39509 6.38285 7.11527 6.10303 6.77009 6.10303H5.841L5.99755 4.69407C6.03567 4.35101 5.78846 4.042 5.4454 4.00388C5.10233 3.96576 4.79332 4.21297 4.7552 4.55604L4.58331 6.10303H3.2597L3.41625 4.69407ZM4.44442 7.35303L4.29278 8.71777H2.96917L3.12081 7.35303H4.44442Z" fill="black"/>
</svg>
